PathFileType	4	(X/Y/Z)	E:/New_biomech_experiments/MICROGRAVITY MOCAP/Session 2024-06-22/Neeraj_FullAction_pp_22_06_24_t02 (1).trc																																																																											
DataRate	CameraRate	NumFrames	NumMarkers	Units	OrigDataRate	OrigDataStartFrame	OrigNumFrames																																																																							
120	120	17	19	m	120	6632	7579																																																																							
Frame#	Time	RSHO			RBAK			LBHD			RUPA			PRSHO			RELB			CLAV			RFHD			LFHD			C7			RWRB			RFRM			RWRA			MRELB			DIA			STRN			ARSHO			RBHD			T10																						
		X1	Y1	Z1	X2	Y2	Z2	X3	Y3	Z3	X4	Y4	Z4	X5	Y5	Z5	X6	Y6	Z6	X7	Y7	Z7	X8	Y8	Z8	X9	Y9	Z9	X10	Y10	Z10	X11	Y11	Z11	X12	Y12	Z12	X13	Y13	Z13	X14	Y14	Z14	X15	Y15	Z15	X16	Y16	Z16	X17	Y17	Z17	X18	Y18	Z18	X19	Y19	Z19																				y19
																																																																														
6632	55.258	-0.0669	0.07488	0.07636	-0.11609	-0.13338	0.00432	-0.03849	0.21838	-0.12678	-0.04099	0.06328	0.25564	-0.11903	-0.02186	0.0692	-0.04171	0.07703	0.39103	0.096	-0.00673	-0.07305	0.0521	0.30787	0.02791	0.07511	0.32564	-0.07179	-0.10399	0.0242	-0.08474	-0.04464	0.07734	0.68559	-0.02373	0.09606	0.52615	0.05465	0.07906	0.6736	0.03511	-0.01353	0.40219	0.07944	-0.31635	0.10948	0.1367	-0.16794	-0.05061	0.04987	0.02585	0.0753	-0.07051	0.21612	-0.02621	-0.1094	-1.58474	-0.06266																				-1.58474
6633	55.267	-0.06693	0.07487	0.07631	-0.11629	-0.13266	0.00469	-0.03867	0.21848	-0.12706	-0.0404	0.06235	0.25528	-0.11902	-0.02186	0.06918	-0.04183	0.07673	0.39092	0.09604	-0.00674	-0.07305	0.05207	0.30778	0.02781	0.0752	0.32565	-0.07174	-0.104	0.02424	-0.08477	-0.04463	0.07695	0.6856	-0.02382	0.09614	0.52648	0.05461	0.07875	0.67362	0.03512	-0.01368	0.40212	0.07945	-0.31635	0.10944	0.13674	-0.16793	-0.05064	0.04989	0.02581	0.07527	-0.06952	0.21475	-0.02661	-0.10934	-1.58477	-0.0627																				-1.58477
6634	55.275	-0.06686	0.07485	0.07633	-0.11604	-0.13339	0.00421	-0.03859	0.2185	-0.12708	-0.04041	0.06228	0.2553	-0.11899	-0.0219	0.06911	-0.04183	0.07654	0.39097	0.09609	-0.00674	-0.07306	0.05227	0.30787	0.02792	0.0754	0.32532	-0.07194	-0.10398	0.02426	-0.08483	-0.04466	0.07659	0.68561	-0.02376	0.09586	0.52647	0.05465	0.07842	0.67364	0.04049	-0.01234	0.40191	0.07947	-0.31637	0.1094	0.13675	-0.16796	-0.05067	0.04989	0.02577	0.07527	-0.07038	0.21611	-0.02622	-0.10928	-1.58483	-0.06276																				-1.58483
6635	55.283	-0.06687	0.07485	0.07629	-0.11604	-0.13339	0.00413	-0.03827	0.21842	-0.12679	-0.04037	0.06216	0.25527	-0.11897	-0.02191	0.06909	-0.04183	0.07633	0.391	0.09611	-0.00676	-0.0731	0.05237	0.30783	0.02792	0.07552	0.3253	-0.07194	-0.10393	0.02425	-0.08484	-0.04467	0.07621	0.68566	-0.02375	0.09564	0.52655	0.0544	0.07822	0.67354	0.04057	-0.01248	0.40186	0.0795	-0.31635	0.10936	0.13675	-0.16796	-0.05068	0.04993	0.02575	0.07526	-0.07032	0.2161	-0.02623	-0.10932	-1.58484	-0.06283																				-1.58484
6636	55.292	-0.06681	0.07481	0.07633	-0.11598	-0.1334	0.00408	-0.03846	0.21854	-0.12708	-0.04037	0.06204	0.25531	-0.11894	-0.02191	0.06904	-0.04187	0.07618	0.39102	0.09617	-0.00675	-0.0731	0.05252	0.30768	0.02786	0.07558	0.3253	-0.07193	-0.1039	0.02429	-0.08488	-0.04462	0.07586	0.68566	-0.02375	0.09533	0.52649	0.05446	0.07786	0.67357	0.04065	-0.01268	0.40177	0.07953	-0.31638	0.10932	0.13681	-0.16798	-0.0507	0.04997	0.02574	0.07529	-0.07026	0.21613	-0.02626	-0.1092	-1.58488	-0.06285																				-1.58488
6637	55.3	-0.06681	0.07478	0.07631	-0.11597	-0.1334	0.00403	-0.03839	0.21858	-0.12711	-0.04069	0.06271	0.25543	-0.11892	-0.02193	0.06898	-0.04184	0.07575	0.39081	0.09619	-0.00678	-0.07314	0.05261	0.30764	0.02787	0.07566	0.32527	-0.07192	-0.10388	0.02432	-0.08495	-0.04469	0.07553	0.68561	-0.0237	0.09511	0.52654	0.05446	0.07748	0.67355	0.04067	-0.01286	0.40173	0.07953	-0.31639	0.10929	0.13681	-0.168	-0.05075	0.05	0.02571	0.07525	-0.07019	0.21613	-0.02624	-0.10912	-1.58495	-0.06292																				-1.58495
6638	55.308	-0.06669	0.0748	0.0763	-0.11613	-0.13267	0.00442	-0.03829	0.21857	-0.12712	-0.04057	0.06217	0.25561	-0.11887	-0.02193	0.06892	-0.04182	0.07558	0.39083	0.09625	-0.00678	-0.07316	0.05269	0.3076	0.02789	0.07576	0.32526	-0.07189	-0.10383	0.02434	-0.08501	-0.04457	0.07518	0.68567	-0.02366	0.09481	0.52657	0.05451	0.07709	0.67355	0.0407	-0.01307	0.40165	0.07957	-0.3164	0.10929	0.13685	-0.16799	-0.05077	0.05002	0.02567	0.07521	-0.07007	0.21615	-0.0262	-0.10907	-1.58501	-0.06295																				-1.58501
6639	55.317	-0.06662	0.07481	0.07627	-0.11611	-0.13267	0.00435	-0.03822	0.21861	-0.12719	-0.04052	0.06207	0.25559	-0.11886	-0.02189	0.06886	-0.0418	0.07538	0.39084	0.09629	-0.00679	-0.07321	0.05278	0.30758	0.02791	0.07588	0.32524	-0.07188	-0.10375	0.02431	-0.08503	-0.04461	0.07478	0.68567	-0.02367	0.09455	0.52659	0.05452	0.07675	0.67358	0.0407	-0.0133	0.4016	0.07961	-0.31642	0.10924	0.13688	-0.168	-0.05082	0.05006	0.02565	0.0752	-0.06999	0.21616	-0.0262	-0.10906	-1.58503	-0.06301																				-1.58503
6640	55.325	-0.0666	0.07477	0.07629	-0.1159	-0.13339	0.00386	-0.03813	0.21862	-0.12723	-0.0405	0.06195	0.25561	-0.11884	-0.02187	0.06882	-0.04178	0.07521	0.39083	0.09631	-0.0068	-0.07323	0.05284	0.30758	0.02788	0.07597	0.32521	-0.07188	-0.10375	0.02437	-0.08509	-0.04465	0.07438	0.68564	-0.02367	0.09424	0.52665	0.05447	0.07637	0.67358	0.04076	-0.01351	0.40153	0.07965	-0.31641	0.10921	0.13688	-0.16801	-0.05084	0.05007	0.02562	0.07517	-0.06994	0.21618	-0.02631	-0.109	-1.58509	-0.06308																				-1.58509
6641	55.333	-0.06654	0.07476	0.07625	-0.11585	-0.13341	0.0038	-0.03778	0.21852	-0.12702	-0.04044	0.0618	0.2556	-0.11879	-0.02189	0.06875	-0.04175	0.07501	0.39086	0.09635	-0.00682	-0.07326	0.05289	0.30754	0.02785	0.07604	0.32521	-0.07187	-0.10364	0.02434	-0.08514	-0.04464	0.07399	0.68566	-0.02366	0.09392	0.52663	0.0545	0.07602	0.67364	0.04084	-0.01368	0.40149	0.07972	-0.31639	0.10919	0.13693	-0.16802	-0.05087	0.05016	0.02561	0.07516	-0.06987	0.2162	-0.02632	-0.10902	-1.58514	-0.06313																				-1.58514
6642	55.342	-0.06651	0.07475	0.07628	-0.11584	-0.13339	0.00376	-0.03763	0.21855	-0.12704	-0.04043	0.06167	0.25561	-0.11877	-0.02188	0.06869	-0.04171	0.07481	0.39087	0.0964	-0.00681	-0.0733	0.053	0.30754	0.02785	0.0764	0.32519	-0.07165	-0.10361	0.02435	-0.08517	-0.04467	0.07357	0.68565	-0.02355	0.09312	0.52627	0.05447	0.07567	0.67368	0.04087	-0.01391	0.40143	0.07976	-0.31638	0.10915	0.13697	-0.16802	-0.05093	0.05019	0.02558	0.07514	-0.06983	0.2162	-0.02647	-0.10896	-1.58517	-0.06316																				-1.58517
6643	55.35	-0.06642	0.07475	0.07627	-0.11583	-0.13337	0.00374	-0.0376	0.21854	-0.1271	-0.04039	0.06153	0.2556	-0.11871	-0.02189	0.06868	-0.04168	0.07463	0.39088	0.09643	-0.00682	-0.07336	0.05308	0.30751	0.02784	0.07624	0.32513	-0.07195	-0.10354	0.02434	-0.08518	-0.04467	0.07312	0.6857	-0.02357	0.0928	0.52629	0.05446	0.07526	0.67372	0.04092	-0.01408	0.40138	0.07978	-0.31639	0.10912	0.137	-0.16801	-0.05095	0.05024	0.02556	0.07511	-0.06982	0.21622	-0.02655	-0.10896	-1.58518	-0.06323																				-1.58518
6644	55.358	-0.06644	0.0747	0.07625	-0.11577	-0.1334	0.00368	-0.03778	0.21871	-0.12742	-0.04037	0.06141	0.25565	-0.11871	-0.0219	0.06863	-0.04166	0.07442	0.39092	0.09643	-0.00683	-0.07338	0.0532	0.30753	0.02782	0.07637	0.32542	-0.07178	-0.10348	0.02434	-0.08521	-0.04473	0.07265	0.6857	-0.02357	0.09252	0.52632	0.05445	0.07483	0.67379	0.04097	-0.01427	0.40129	0.07983	-0.31637	0.10907	0.13703	-0.16802	-0.05099	0.05032	0.02556	0.0751	-0.06965	0.21625	-0.02647	-0.1089	-1.58521	-0.06327																				-1.58521
6645	55.367	-0.06637	0.07467	0.07628	-0.11573	-0.1334	0.00362	-0.03745	0.21859	-0.12719	-0.04037	0.06126	0.25566	-0.11867	-0.02191	0.0686	-0.04167	0.07421	0.39092	0.09646	-0.00683	-0.07343	0.05325	0.30752	0.02776	0.07647	0.32542	-0.0718	-0.10349	0.02435	-0.08525	-0.04473	0.07223	0.68577	-0.02353	0.0922	0.52635	0.05445	0.07438	0.67387	0.04103	-0.01447	0.40123	0.07987	-0.3164	0.10901	0.13705	-0.16803	-0.05103	0.05031	0.02553	0.0751	-0.06965	0.21628	-0.02665	-0.10887	-1.58525	-0.06334																				-1.58525
6646	55.375	-0.06635	0.07466	0.0763	-0.11568	-0.13341	0.00359	-0.03736	0.21858	-0.12723	-0.0403	0.06114	0.25572	-0.11864	-0.02192	0.06855	-0.04166	0.07401	0.39095	0.0965	-0.00681	-0.07346	0.05337	0.30751	0.02775	0.07675	0.32541	-0.07159	-0.10339	0.02432	-0.08527	-0.04479	0.07175	0.68576	-0.02353	0.09186	0.52643	0.05459	0.07347	0.67384	0.04111	-0.01466	0.40118	0.0799	-0.31635	0.10897	0.1371	-0.16799	-0.0511	0.05035	0.02551	0.07505	-0.06952	0.21628	-0.02656	-0.1088	-1.58527	-0.0634																				-1.58527
6647	55.383	-0.06634	0.07465	0.07626	-0.11567	-0.13343	0.00354	-0.03732	0.2186	-0.12726	-0.04035	0.06101	0.25574	-0.11862	-0.02193	0.06852	-0.04166	0.07378	0.39099	0.09652	-0.00683	-0.07347	0.05341	0.30747	0.02769	0.07664	0.3254	-0.07186	-0.10333	0.02431	-0.0853	-0.04477	0.07127	0.68582	-0.02359	0.09156	0.52646	0.05419	0.07318	0.6737	0.04116	-0.01488	0.40109	0.07998	-0.31635	0.1089	0.13711	-0.16799	-0.05114	0.05035	0.02547	0.07506	-0.06954	0.2163	-0.02672	-0.10881	-1.5853	-0.06344																				-1.5853
6648	55.392	-0.06629	0.07464	0.07629	-0.11567	-0.13344	0.0035	-0.03731	0.21864	-0.12728	-0.04033	0.06088	0.25574	-0.11857	-0.02195	0.06848	-0.04168	0.07356	0.39101	0.09655	-0.00682	-0.07352	0.05351	0.30748	0.02766	0.0767	0.32538	-0.07191	-0.1034	0.02434	-0.08537	-0.04481	0.07076	0.68581	-0.02362	0.09121	0.52652	0.05429	0.07271	0.67379	0.04118	-0.01512	0.40102	0.08004	-0.31634	0.10888	0.13716	-0.16801	-0.0512	0.05038	0.02545	0.07507	-0.06947	0.21633	-0.02672	-0.10876	-1.58537	-0.06349																				-1.58537
